# xmcd
#
# Track frame offsets:
#	150
#	15635
#	29448
#	41278
#	54370
#	67934
#	85032
#	99081
#	115500
#	126296
#	136586
#	149883
#	163441
#	183086
#	202158
#	214466
#	232939
#	252850
#	281045
#	297019
#	319711
#	330898
#
# Disc length: 4606 seconds
#
# Revision: 5
# Processed by: cddbd v1.5.2PL0 Copyright (c) Steve Scherf et al.
# Submitted via: EZCDAudioConverter 2.1.7.1
#
DISCID=3411fc16
DTITLE=The Mamas and The Papas - Complete Anthology 3/4
DYEAR=2004
DGENRE=
TTITLE0=People Like Us
TTITLE1=Pacific Coast Highway
TTITLE2=Snowqueen Of Texas
TTITLE3=Shooting Star
TTITLE4=Step Out
TTITLE5=Lady Genevieve
TTITLE6=No Dough
TTITLE7=European Blueboy
TTITLE8=Pearl
TTITLE9=I Wanna Be A Star
TTITLE10=Grasshopper
TTITLE11=Blueberries For Breakfast
TTITLE12=Straight Shooter [Live At Monterey]
TTITLE13=Got A Feelin' [Live At Monterey]
TTITLE14=California Dreamin' [Live At Monterey]
TTITLE15=Spanish Harlem [Live At Monterey]
TTITLE16=Somebody Groovy [Live At Monterey]
TTITLE17=I Call Your Name [Live At Monterey]
TTITLE18=Monday, Monday [Live At Monterey]
TTITLE19=Dancing In The Street [Live At Monterey]
TTITLE20=John Phillips Dialogue
TTITLE21=Cass Elliot Dialogue
EXTD=
EXTT0=
EXTT1=
EXTT2=
EXTT3=
EXTT4=
EXTT5=
EXTT6=
EXTT7=
EXTT8=
EXTT9=
EXTT10=
EXTT11=
EXTT12=
EXTT13=
EXTT14=
EXTT15=
EXTT16=
EXTT17=
EXTT18=
EXTT19=
EXTT20=
EXTT21=
PLAYORDER=
